<svg xmlns="http://www.w3.org/2000/svg" viewBox="0 0 500.33 500.33"><defs><style>.cls-1{fill:#fff;}</style></defs><g id="ең–еұӨ_2" data-name="ең–еұӨ 2"><g id="ең–еұӨ_1-2" data-name="ең–еұӨ 1"><circle class="cls-1" cx="250.17" cy="250.17" r="250.17"/><path d="M339.3,251.74c-2.06-1.67-4.91-3.9-12.26-4.45-5.9-.44-12.48,3.58-15.24,7.41-2.95,4.1-4.43,9.23-4.21,12a25,25,0,0,0,3.85,11.42.36.36,0,0,1,0,.36l-8.81,15.3c-17.43,30.17-35.73,62.05-53.09,92.27-7.18-1-14,3.94-16.24,6.64a2.12,2.12,0,0,1-1.63.68c-15.3,0-30.6-.23-45.9-.19-2.52,0-5-.14-7.09,2.17-15.57,17.41-31.35,34.64-46.82,52.15-3.29,3.72-2.52,2.69-10.05,11.55a.36.36,0,0,0,.27.59c9,0,9.2.15,16.59.15,1.56-.13,2.34-1.66,3.32-2.74,20.77-22.74,27.08-29.58,40.5-44.48a9.23,9.23,0,0,1,7.71-3.27c7.2.12,14.41-.09,21.61,0,5.44.05,10.91-.56,16.32.43.12,0,.59.26.62.37,1.9,8.91,9.33,15.07,19.35,15.54a19.73,19.73,0,0,0,16.8-9.3c4.62-6.71,4-16.32-1.64-23.28a.55.55,0,0,1-.06-.7c8.13-14.27,16-28.06,24-42.08,10.8-19,17.86-31.42,28.68-50.37,1.23-2.16,3.7-6.49,10.72-14.47.07-.07-.54.51-.45.51a19.36,19.36,0,0,0,17.93-10.12c.56-1.13,4-.77,8.43-.77,24.79.52,28.37,3.11,36.29-2.25,6.74-4.57,10.26-10.15,12.67-13.55,18.64-26.35,18.64-26.35,46.34-62.93,2.25-3,4.33-4.62,8.36-4.91a19.16,19.16,0,0,0,18-15.9c1.4-7.57-3.32-16.37-10.75-20a19.07,19.07,0,0,0-21.47,3.72c-5.92,5.61-7.37,13.51-3.74,21.13,1.05,2.21,2,3.9,0,6.41-16.4,20.52-24.5,32.9-40,52.67a168.56,168.56,0,0,1-14,17.14c-5.41,6-9.44,4.66-28.22,4.88-16.63,0-5.71-.28-17.16-10.17"/><g id="ең–еұӨ_2-2" data-name="ең–еұӨ 2"><g id="ең–еұӨ_1-2-2" data-name="ең–еұӨ 1-2"><path d="M112.72,402.21l.08-.22a.74.74,0,0,1-.08.22c-1.88,4.46-2.47,5.31-2.24,5.51.26-.41,3.17-4.91,3.46-5.3A416.56,416.56,0,0,1,143.53,367a530.58,530.58,0,0,1,80.87-71.95q16.77-23.61,33.63-47.19c16-22.26,33.3-43.48,51.27-64.16,10.34-11.9,20.89-23.62,31.49-35.28,11.2-12.39,22.57-24.69,33.88-37,4.11-4.47,10-9.54,14.1-14-.71-.49-2.92.19-3.37.32C368.18,103,351,108.22,333.77,113.53c-46.47,14.38-92.44,30.18-137.32,49C148.86,182.45,103,205.7,60.52,235l-.08.07c-1.48,1-22,14.22.8,3,2.66-1.32,2.93-1.37,7.67-3.51,38.52-18.55,85.06-33.5,125.7-45.48,16.11-4.11,31.72-8.38,48.26-10,7.3-.27,6.43-.28,1.62,4.51C218.13,209.85,146.3,323.07,112.72,402.21Z"/></g></g></g></g></svg>